<svg width="80" height="30" viewBox="0 0 80 30" fill="none" xmlns="http://www.w3.org/2000/svg">
<path d="M11.1874 4.3935V16.1521H7.86144V11.5662H3.326V16.1521H0V4.3935H3.326V8.81136H7.86144V4.3935H11.1874Z" fill="#111518"/>
<path d="M23.3603 11.6166C23.3603 11.639 23.3435 11.9022 23.3099 12.4061H16.6915C16.8259 12.8765 17.0835 13.2404 17.4642 13.498C17.8562 13.7444 18.3433 13.8675 18.9257 13.8675C19.3624 13.8675 19.7376 13.806 20.0511 13.6828C20.3759 13.5596 20.7006 13.358 21.0254 13.078L22.7052 14.825C21.8205 15.8105 20.5271 16.3033 18.8249 16.3033C17.761 16.3033 16.8259 16.1017 16.0196 15.6985C15.2133 15.2954 14.5862 14.7354 14.1382 14.0187C13.7015 13.302 13.4831 12.4901 13.4831 11.583C13.4831 10.6871 13.6959 9.88643 14.1214 9.18092C14.5582 8.46421 15.1573 7.90427 15.9188 7.50112C16.6803 7.09797 17.537 6.8964 18.4889 6.8964C19.396 6.8964 20.2191 7.08678 20.9582 7.46753C21.6973 7.83708 22.2796 8.38022 22.7052 9.09693C23.1419 9.80244 23.3603 10.6423 23.3603 11.6166ZM18.5057 9.16412C18.013 9.16412 17.5986 9.30411 17.2627 9.58407C16.9379 9.86404 16.7307 10.2448 16.6411 10.7263H20.3703C20.2807 10.2448 20.0679 9.86404 19.732 9.58407C19.4072 9.30411 18.9984 9.16412 18.5057 9.16412Z" fill="#111518"/>
<path d="M25.5038 3.68799H28.6954V16.1521H25.5038V3.68799Z" fill="#111518"/>
<path d="M31.4414 3.68799H34.6331V16.1521H31.4414V3.68799Z" fill="#111518"/>
<path d="M3.625 24.6396V28.1396H2.815V26.7046H1.225V28.1396H0.415V24.6396H1.225V26.0196H2.815V24.6396H3.625ZM8.06309 27.4896V28.1396H5.35309V24.6396H7.99809V25.2896H6.15809V26.0496H7.78309V26.6796H6.15809V27.4896H8.06309ZM9.60758 24.6396H10.4176V27.4796H12.1726V28.1396H9.60758V24.6396ZM13.5252 24.6396H14.3352V27.4796H16.0902V28.1396H13.5252V24.6396ZM17.4427 24.6396H18.2527V28.1396H17.4427V24.6396ZM21.1334 28.1996C20.8567 28.1996 20.5884 28.163 20.3284 28.0896C20.0717 28.013 19.865 27.9146 19.7084 27.7946L19.9834 27.1846C20.1334 27.2946 20.3117 27.383 20.5184 27.4496C20.725 27.5163 20.9317 27.5496 21.1384 27.5496C21.3684 27.5496 21.5384 27.5163 21.6484 27.4496C21.7584 27.3796 21.8134 27.288 21.8134 27.1746C21.8134 27.0913 21.78 27.023 21.7134 26.9696C21.65 26.913 21.5667 26.868 21.4634 26.8346C21.3634 26.8013 21.2267 26.7646 21.0534 26.7246C20.7867 26.6613 20.5684 26.598 20.3984 26.5346C20.2284 26.4713 20.0817 26.3696 19.9584 26.2296C19.8384 26.0896 19.7784 25.903 19.7784 25.6696C19.7784 25.4663 19.8334 25.283 19.9434 25.1196C20.0534 24.953 20.2184 24.8213 20.4384 24.7246C20.6617 24.628 20.9334 24.5796 21.2534 24.5796C21.4767 24.5796 21.695 24.6063 21.9084 24.6596C22.1217 24.713 22.3084 24.7896 22.4684 24.8896L22.2184 25.5046C21.895 25.3213 21.5717 25.2296 21.2484 25.2296C21.0217 25.2296 20.8534 25.2663 20.7434 25.3396C20.6367 25.413 20.5834 25.5096 20.5834 25.6296C20.5834 25.7496 20.645 25.8396 20.7684 25.8996C20.895 25.9563 21.0867 26.013 21.3434 26.0696C21.61 26.133 21.8284 26.1963 21.9984 26.2596C22.1684 26.323 22.3134 26.423 22.4334 26.5596C22.5567 26.6963 22.6184 26.8813 22.6184 27.1146C22.6184 27.3146 22.5617 27.498 22.4484 27.6646C22.3384 27.828 22.1717 27.958 21.9484 28.0546C21.725 28.1513 21.4534 28.1996 21.1334 28.1996ZM27.2818 24.6396V28.1396H26.4718V26.7046H24.8818V28.1396H24.0718V24.6396H24.8818V26.0196H26.4718V24.6396H27.2818Z" fill="#FF6B09"/>
<path d="M34.0359 27.4896V28.1396H31.3259V24.6396H33.9709V25.2896H32.1309V26.0496H33.7559V26.6796H32.1309V27.4896H34.0359ZM38.7904 24.6396V28.1396H38.1254L36.3804 26.0146V28.1396H35.5804V24.6396H36.2504L37.9904 26.7646V24.6396H38.7904ZM42.8835 26.3346H43.6235V27.7546C43.4335 27.898 43.2135 28.008 42.9635 28.0846C42.7135 28.1613 42.4618 28.1996 42.2085 28.1996C41.8452 28.1996 41.5185 28.123 41.2285 27.9696C40.9385 27.813 40.7102 27.598 40.5435 27.3246C40.3802 27.048 40.2985 26.7363 40.2985 26.3896C40.2985 26.043 40.3802 25.733 40.5435 25.4596C40.7102 25.183 40.9402 24.968 41.2335 24.8146C41.5268 24.658 41.8568 24.5796 42.2235 24.5796C42.5302 24.5796 42.8085 24.6313 43.0585 24.7346C43.3085 24.838 43.5185 24.988 43.6885 25.1846L43.1685 25.6646C42.9185 25.4013 42.6168 25.2696 42.2635 25.2696C42.0402 25.2696 41.8418 25.3163 41.6685 25.4096C41.4952 25.503 41.3602 25.6346 41.2635 25.8046C41.1668 25.9746 41.1185 26.1696 41.1185 26.3896C41.1185 26.6063 41.1668 26.7996 41.2635 26.9696C41.3602 27.1396 41.4935 27.273 41.6635 27.3696C41.8368 27.463 42.0335 27.5096 42.2535 27.5096C42.4868 27.5096 42.6968 27.4596 42.8835 27.3596V26.3346ZM45.2759 24.6396H46.0859V27.4796H47.8409V28.1396H45.2759V24.6396ZM49.1935 24.6396H50.0035V28.1396H49.1935V24.6396ZM52.8841 28.1996C52.6075 28.1996 52.3391 28.163 52.0791 28.0896C51.8225 28.013 51.6158 27.9146 51.4591 27.7946L51.7341 27.1846C51.8841 27.2946 52.0625 27.383 52.2691 27.4496C52.4758 27.5163 52.6825 27.5496 52.8891 27.5496C53.1191 27.5496 53.2891 27.5163 53.3991 27.4496C53.5091 27.3796 53.5641 27.288 53.5641 27.1746C53.5641 27.0913 53.5308 27.023 53.4641 26.9696C53.4008 26.913 53.3175 26.868 53.2141 26.8346C53.1141 26.8013 52.9775 26.7646 52.8041 26.7246C52.5375 26.6613 52.3191 26.598 52.1491 26.5346C51.9791 26.4713 51.8325 26.3696 51.7091 26.2296C51.5891 26.0896 51.5291 25.903 51.5291 25.6696C51.5291 25.4663 51.5841 25.283 51.6941 25.1196C51.8041 24.953 51.9691 24.8213 52.1891 24.7246C52.4125 24.628 52.6841 24.5796 53.0041 24.5796C53.2275 24.5796 53.4458 24.6063 53.6591 24.6596C53.8725 24.713 54.0591 24.7896 54.2191 24.8896L53.9691 25.5046C53.6458 25.3213 53.3225 25.2296 52.9991 25.2296C52.7725 25.2296 52.6041 25.2663 52.4941 25.3396C52.3875 25.413 52.3341 25.5096 52.3341 25.6296C52.3341 25.7496 52.3958 25.8396 52.5191 25.8996C52.6458 25.9563 52.8375 26.013 53.0941 26.0696C53.3608 26.133 53.5791 26.1963 53.7491 26.2596C53.9191 26.323 54.0641 26.423 54.1841 26.5596C54.3075 26.6963 54.3691 26.8813 54.3691 27.1146C54.3691 27.3146 54.3125 27.498 54.1991 27.6646C54.0891 27.828 53.9225 27.958 53.6991 28.0546C53.4758 28.1513 53.2041 28.1996 52.8841 28.1996ZM59.0326 24.6396V28.1396H58.2226V26.7046H56.6326V28.1396H55.8226V24.6396H56.6326V26.0196H58.2226V24.6396H59.0326Z" fill="#111518"/>
<path d="M66.2949 13.5815V16.1516H56.8545V4.39307H66.0766V6.96315H60.1469V8.94531H65.3711V11.4314H60.1469V13.5815H66.2949Z" fill="#111518"/>
<path d="M80 4.39307V16.1516H77.2619L72.0713 9.886V16.1516H68.8125V4.39307H71.5506L76.7412 10.6587V4.39307H80Z" fill="#111518"/>
<g clip-path="url(#clip0_12_27)">
<path d="M52.1512 10.0501C51.9795 9.66542 51.7426 9.28658 51.3961 8.84901C50.5226 7.75069 50.256 5.30147 50.2531 5.27798C50.2412 5.16051 50.1583 5.0636 50.0488 5.02836C49.9362 4.99312 49.8148 5.02542 49.7349 5.11352C48.6925 6.2794 49.1308 8.0796 49.3677 8.79909C49.4328 8.99585 49.5039 9.22785 49.5542 9.46278C49.9392 11.3628 49.1959 12.2233 49.0212 12.3966C48.8524 12.4435 48.7369 12.42 48.6303 12.3055C48.2631 11.9032 48.1417 10.5846 48.3135 8.86663C48.349 8.51717 48.3401 8.20294 48.2898 7.90927C47.9276 5.79769 46.5995 4.44322 46.2614 3.96821C45.3316 2.59383 45.2368 0.306138 45.2339 0.285581C45.2309 0.176923 45.1687 0.0800121 45.071 0.0330248C44.9762 -0.0139625 44.8608 -0.00808904 44.7719 0.0535818C43.2203 1.10786 43.3535 3.64811 43.5697 5.06654C43.62 5.39545 43.7177 5.73023 43.8865 6.15312C44.4876 7.66552 43.7681 9.61843 43.7622 9.63605C43.7562 9.65367 43.7503 9.66835 43.7474 9.68597C43.6556 10.1676 43.5016 10.4554 43.3298 10.4554C43.3121 10.4554 43.2943 10.4525 43.2736 10.4466C43.0633 10.4025 42.9538 10.1793 42.9508 9.98552C42.9389 7.48051 40.4249 6.63767 40.3983 6.62886C40.2857 6.59362 40.1614 6.62593 40.0844 6.71697C40.0044 6.808 39.9896 6.93428 40.0429 7.04C40.0725 7.10167 40.1673 7.37185 40.1021 8.32628C40.0459 9.1838 39.8889 10.0325 39.6372 10.846C39.0391 12.7959 39.1338 14.6431 39.1398 14.7312C39.5997 19.7326 46.7926 20.609 51.0615 17.7913C51.5293 17.4829 51.9113 17.1305 52.1926 16.7429C53.768 14.5697 52.8412 11.6183 52.1512 10.0501ZM41.2097 14.8281C41.2185 14.9897 41.0942 15.1277 40.9313 15.1365H40.9135C40.7566 15.1365 40.6263 15.0161 40.6174 14.8604C40.5908 14.4317 40.5967 13.9824 40.6293 13.4949C40.6411 13.3334 40.7832 13.213 40.9461 13.2217C41.109 13.2335 41.2333 13.3744 41.2215 13.536C41.1889 14 41.183 14.4229 41.2097 14.8281ZM41.3547 12.2262C41.337 12.376 41.2096 12.4847 41.0616 12.4847C41.0497 12.4847 41.0379 12.4847 41.0231 12.4817C40.8632 12.4612 40.7477 12.3173 40.7654 12.1557L40.9076 11.0222C40.9283 10.8636 41.0734 10.7491 41.2392 10.7667C41.4021 10.7872 41.5176 10.9341 41.4969 11.0956L41.3547 12.2262Z" fill="#FF6B09"/>
<path d="M50.1483 4.01767C49.9868 3.99285 49.8761 3.84317 49.901 3.683C49.9195 3.56368 50.0264 2.95285 50.3168 2.6457C50.4285 2.52726 50.6157 2.52109 50.7354 2.63236C50.8547 2.7432 50.8607 2.92906 50.7488 3.0475C50.6259 3.17756 50.5212 3.54979 50.4863 3.77251C50.4613 3.93098 50.3122 4.04219 50.1483 4.01767Z" fill="#FF6B09"/>
<path d="M39.3526 5.48046C39.2959 5.26206 39.1551 4.90187 39.0199 4.78429C38.8969 4.6773 38.8846 4.49176 38.9924 4.36989C39.1 4.24772 39.2869 4.23524 39.4103 4.34263C39.7294 4.62009 39.8961 5.21763 39.9263 5.33448C39.9668 5.4915 39.8714 5.65123 39.7132 5.69167C39.5515 5.73199 39.3929 5.63487 39.3526 5.48046Z" fill="#FF6B09"/>
</g>
<defs>
<clipPath id="clip0_12_27">
<rect width="14.2137" height="19.3823" fill="white" transform="translate(38.8809)"/>
</clipPath>
</defs>
</svg>
